<?xml version="1.0" encoding="UTF-8" standalone="no"?>
<!DOCTYPE svg PUBLIC "-//W3C//DTD SVG 1.1//EN" "http://www.w3.org/Graphics/SVG/1.1/DTD/svg11.dtd">
<svg width="100%" height="100%" viewBox="0 0 512 512" version="1.1" xmlns="http://www.w3.org/2000/svg" xmlns:xlink="http://www.w3.org/1999/xlink" xml:space="preserve" xmlns:serif="http://www.serif.com/" style="fill-rule:evenodd;clip-rule:evenodd;stroke-linejoin:round;stroke-miterlimit:2;">
    <g id="total" transform="matrix(0.357535,0,0,0.357535,292.322,-184.617)">
        <g transform="matrix(2.62458,0,0,2.49937,-769.596,529.683)">
            <path d="M165.098,70.543L145.846,95.776L220.985,85.87L256,107.739L276.124,96.711L278.554,37.647L250.704,28.301L165.098,70.543Z"/>
            <path d="M162.379,64.466L247.985,22.224C249.446,21.503 251.113,21.389 252.65,21.905L280.5,31.251C283.247,32.173 285.066,34.911 284.942,37.937L282.512,97.001C282.414,99.396 281.106,101.554 279.082,102.663L258.958,113.691C256.993,114.768 254.637,114.699 252.732,113.51L219.603,92.819L146.643,102.438C144.06,102.779 141.538,101.441 140.266,99.055C138.995,96.669 139.229,93.712 140.856,91.578L160.108,66.345C160.719,65.545 161.496,64.902 162.379,64.466ZM165.098,70.543L145.846,95.776L220.985,85.87L256,107.739L276.124,96.711L278.554,37.647L250.704,28.301L165.098,70.543Z"/>
        </g>
        <g id="B">
            <path d="M-116.383,581.719C-140.498,581.686 -187.092,592.877 -217.771,606.076C-220.208,607.124 -223.948,608.677 -226.08,609.525C-234.013,612.68 -265.803,629.173 -277.044,635.965C-312.723,657.523 -346.578,683.921 -379.25,715.662C-424.404,759.528 -451.131,799.272 -458.157,832.995C-459.858,841.156 -460.374,848.71 -459.23,848.71C-458.89,848.71 -455.525,846.56 -451.751,843.929C-431.269,829.652 -398.228,811.545 -373.985,801.315C-358.735,794.88 -328.284,784.474 -315.267,781.249C-255.743,766.505 -192.573,767.832 -159.474,784.523C-156.048,786.25 -149.082,790.801 -143.994,794.635C-120.824,812.094 -104.195,831.982 -96.319,851.652L-92.921,860.137L-95.929,867.806C-97.584,872.024 -113.215,903.978 -130.664,938.815C-148.113,973.652 -166.965,1011.62 -172.558,1023.2C-178.151,1034.78 -187.995,1055.15 -194.433,1068.47C-200.872,1081.8 -206.138,1092.84 -206.138,1093.02C-206.138,1093.19 -209.189,1099.74 -212.917,1107.57C-216.645,1115.4 -225.552,1134.52 -232.711,1150.06C-246.687,1180.39 -246.277,1179.49 -258.224,1206.01C-262.617,1215.76 -267.39,1226.34 -268.829,1229.52C-270.268,1232.7 -274.74,1242.92 -278.766,1252.23C-282.792,1261.54 -286.764,1270.65 -287.591,1272.48C-297.951,1295.37 -308.292,1322.19 -314.286,1341.72C-322.042,1367.01 -334.368,1409.85 -340.261,1432.02C-341.558,1436.89 -343.823,1445.37 -345.295,1450.85C-354.859,1486.68 -366.956,1527.4 -366.425,1567.73C-367.053,1597.09 -365.5,1618.5 -361.244,1639.19C-356.397,1662.74 -343.041,1687.68 -328.308,1700.68C-318.684,1709.18 -301.686,1716.28 -284.818,1718.86L-279.853,1719.62L-289.884,1709.32C-295.401,1703.65 -302.195,1695.78 -304.983,1691.82C-315.506,1676.87 -323.577,1657.14 -327.871,1635.87C-330.333,1623.67 -332.433,1595.63 -331.727,1584.35C-329.961,1556.12 -328.148,1540.82 -322.996,1510.68C-322.059,1505.19 -320.792,1497.71 -320.178,1494.06C-316.555,1472.46 -310.178,1449.04 -298.763,1415.4C-291.78,1394.82 -280.486,1363.3 -276.139,1352.25C-274.94,1349.2 -270.446,1337.49 -266.15,1326.21C-247.004,1275.97 -211.806,1191.09 -191.954,1147.29C-165.51,1088.94 -148.58,1062.28 -119.834,1033.7C-93.155,1007.18 -73.876,992.615 -47.661,979.183C-11.638,960.726 27.026,946.09 96.667,924.549C124.553,915.923 128.848,914.899 150.684,911.679C165.178,909.542 172.322,909.16 197.689,909.159C224.289,909.158 229.073,909.439 240.895,911.7C262.303,915.796 275.093,920.684 286.32,929.065C307.024,944.519 311.089,967.796 297.927,995.515C279.93,1033.41 236.06,1080.54 132.275,1173.43C54.85,1242.73 38.367,1257.87 17.755,1278.57C-29.014,1325.56 -60.889,1373.07 -72.559,1413.18C-75.6,1423.63 -77.646,1439.84 -75.831,1439.09C-75.262,1438.86 -69.191,1432.59 -62.338,1425.16C-7.901,1366.15 58.372,1323.22 108.502,1314.51C122.304,1312.11 138.037,1312.75 145.14,1316.01C154.494,1320.3 165.005,1334.78 165.005,1343.38C165.005,1352.21 157.59,1366.41 144.168,1383.27C121.067,1412.29 68.733,1464.27 -26.659,1552.95C-92.708,1614.35 -134.269,1658.9 -167.558,1704.01C-208.068,1758.89 -230.498,1810.97 -227.977,1844.3C-227.638,1848.79 -227.586,1852.46 -227.864,1852.46C-228.943,1852.46 -257.167,1838.12 -264.949,1833.62C-327.645,1797.35 -388.001,1734.04 -427.611,1663.01C-471.123,1584.98 -496.536,1499.64 -504.805,1403.77C-506.955,1378.83 -507.278,1329.16 -505.423,1308.49C-497.1,1215.7 -472.619,1145.35 -429.201,1089.45C-390.448,1039.56 -362.598,1010.99 -342.124,1000.13C-329.902,993.649 -324.308,989.84 -307.689,989.764C-293.925,989.7 -291.402,992.465 -286.677,994.643C-271.235,1001.76 -259.044,1024.04 -251.024,1059.8C-248.017,1073.21 -243.859,1100.93 -243.729,1108.44C-243.668,1111.97 -243.446,1112.46 -242.699,1110.73C-241.34,1107.56 -241.387,1079.77 -242.778,1064.75C-245.766,1032.49 -248.512,1006.76 -261.682,989.004C-269.816,978.038 -282.37,968.696 -296.431,965.589C-346.439,954.54 -398.942,985.876 -453.753,1059.49C-495.56,1115.63 -523.17,1189.7 -535.63,1279.13C-543.387,1334.81 -544.842,1406.43 -539.019,1445.97C-532.531,1490.01 -518.998,1539.76 -500.019,1589.34C-474.311,1656.49 -439.303,1718.12 -401.224,1763.27C-373.893,1795.68 -334.766,1829.6 -296.691,1853.89C-274.626,1867.97 -256.754,1876.46 -239.376,1881.12C-223.813,1885.29 -207.054,1882.08 -200.002,1876.79C-196.79,1874.38 -193.903,1873.1 -197.208,1869.62C-199.077,1867.65 -205.965,1865.18 -207.397,1862.43C-209.693,1858.04 -209.992,1856 -209.915,1845.26C-209.837,1834.38 -209.439,1832.01 -206.194,1823.1C-186.686,1769.57 -125.64,1699.13 15.751,1567.02C82.298,1504.84 112.409,1475.88 127.016,1460.01C173.503,1409.5 194.264,1374.08 195.742,1342.75C196.65,1323.51 191.529,1310.67 177.192,1296.25C162.645,1281.62 150.202,1277 125.676,1277.11C104.993,1277.2 88.146,1280.41 65.403,1288.56C60.283,1290.4 55.921,1291.73 55.71,1291.52C55.499,1291.3 60.978,1285.94 67.886,1279.59C93.596,1255.97 213.152,1145.26 242.559,1117.84C285.384,1077.91 295.697,1066.82 311.493,1043.7C318.543,1033.38 327.387,1017.6 329.808,1011.02C330.48,1009.19 332.002,1005.13 333.19,1001.99C337.738,989.976 339.473,979.48 339.395,964.486C339.33,951.83 338.955,949.008 336.301,941.219C328.265,917.633 311.025,900.053 284.417,888.311C264.777,879.644 243.948,875.321 213.199,873.529C201.221,872.832 167.501,874.46 152.264,876.471C95.773,883.928 50.208,895.808 1.038,915.901C-31.182,929.068 -69.401,949.193 -94.796,966.364C-105.994,973.936 -106.895,974.478 -106.236,973.243C-100.494,962.493 -74.646,908.538 -64.359,885.826C-33.049,816.702 -18.022,782.679 -10.081,734.598C-0.169,679.51 -3.473,669.661 -5.165,656.834C-9.365,624.988 -34.325,597.389 -61.087,587.566C-77.94,581.381 -102.772,581.74 -116.383,581.719ZM-108.116,603.84C-88.811,603.649 -73.769,608.231 -63.68,617.612C-52.391,628.109 -49.532,635.075 -45.201,657.526C-41.476,676.829 -44.022,688.617 -45.413,698.561C-49.31,726.42 -66.613,786.27 -77.21,808.55C-79.353,813.055 -81.735,816.581 -82.633,816.581C-83.514,816.581 -85.559,813.965 -87.179,810.766C-88.798,807.567 -92.525,801.386 -95.462,797.031C-119.71,761.076 -155.04,740.565 -210.016,730.528C-225.806,727.644 -275.654,727.613 -292.554,730.474C-323.184,735.661 -357.173,745.865 -377.144,755.869C-380.709,757.655 -383.951,758.788 -384.346,758.389C-384.741,757.989 -377.587,750.35 -368.447,741.412C-319.411,693.46 -259.328,652.527 -202.261,628.193C-164.806,612.221 -132.937,604.086 -108.116,603.84ZM-119.41,627.636C-119.041,642.612 -123.955,649.382 -126.925,648.426C-138.119,645.387 -168.537,646.223 -183.578,649.983C-185.562,650.479 -185.043,649.074 -187.845,645.6C-189.772,643.21 -191.992,640.264 -193.641,638.359L-198.902,632.282L-194.851,641.802C-193.293,645.466 -192.891,649.637 -193.264,650.591C-193.805,651.97 -194.916,652.686 -196.97,653.419C-217.466,660.737 -233.027,668.313 -249.347,678.921C-260.3,686.041 -271.752,694.836 -271.021,695.566C-270.743,695.844 -266.376,694.307 -261.316,692.149C-244.607,685.024 -223.072,679.161 -207.8,677.581C-204.144,677.203 -199.533,676.644 -197.553,676.337C-195.47,676.32 -193.072,677.057 -191.62,679.056C-187.635,684.243 -192.255,692.869 -194.941,709.712C-185.04,694.694 -181.659,686.869 -179.906,680.761C-177.968,675.599 -177.183,675.344 -171.158,675.166C-157.23,674.754 -138.548,678.717 -135.132,681.24C-129.611,690.46 -166.767,716.965 -130.951,695.512C-123.136,690.291 -116.222,689.233 -116.222,689.233C-113.924,689.611 -105.94,692.546 -101.22,697.163C-96.175,702.097 -95.434,704.308 -93.129,721.272C-92.427,726.434 -91.612,731.045 -91.319,731.519C-90.098,733.494 -88.658,732.009 -85.44,725.457C-80.452,715.303 -78.92,703.24 -81.288,692.761C-84.667,677.812 -91.648,667.026 -103.414,658.571C-110.679,649.215 -109.745,642.396 -119.41,627.636Z" style="fill-rule:nonzero;"/>
            <path d="M-236.548,1839.05C-236.415,1804.35 -214.044,1752.86 -174.309,1699.03C-140.769,1653.58 -98.919,1608.67 -32.372,1546.81C62.524,1458.59 114.622,1406.91 137.603,1378.04C145.131,1368.59 150.683,1360.06 153.883,1352.94C155.57,1349.19 156.614,1345.99 156.614,1343.38C156.614,1341.15 155.238,1338.42 153.542,1335.63C150.499,1330.64 145.992,1325.63 141.641,1323.64C135.498,1320.82 121.875,1320.7 109.939,1322.78C61.132,1331.26 -3.17,1373.4 -56.17,1430.85C-62.658,1437.88 -68.506,1443.9 -70.042,1445.22C-71.227,1446.23 -72.187,1446.66 -72.639,1446.85C-74.95,1447.8 -77.071,1447.68 -78.995,1446.95C-80.729,1446.3 -82.702,1445 -83.932,1442.23C-84.392,1441.2 -84.952,1439.07 -84.9,1436.08C-84.803,1430.59 -83.013,1419.07 -80.616,1410.84C-68.647,1369.7 -36.156,1320.84 11.809,1272.65C32.484,1251.89 49.014,1236.69 126.679,1167.18C229.058,1075.55 272.594,1029.3 290.347,991.916C301.44,968.555 298.75,948.813 281.301,935.789C270.941,928.056 259.072,923.721 239.319,919.941C227.929,917.763 223.317,917.549 197.689,917.55C172.983,917.551 166.024,917.899 151.908,919.98C130.578,923.125 126.386,924.139 99.146,932.565C30.162,953.903 -8.151,968.367 -43.835,986.651C-69.302,999.699 -88.001,1013.89 -113.918,1039.65C-142.018,1067.59 -158.462,1093.72 -184.312,1150.75C-204.111,1194.44 -239.214,1279.09 -258.309,1329.2C-262.618,1340.51 -267.127,1352.26 -268.33,1355.32C-272.651,1366.31 -283.876,1397.64 -290.817,1418.1C-302.043,1451.18 -308.34,1474.21 -311.903,1495.45C-312.518,1499.1 -313.787,1506.6 -314.725,1512.09C-319.815,1541.87 -321.608,1556.99 -323.353,1584.87C-324.029,1595.68 -322.004,1622.53 -319.646,1634.21C-315.597,1654.27 -308.044,1672.89 -298.122,1686.99C-295.494,1690.72 -289.071,1698.12 -283.871,1703.47L-273.842,1713.77C-271.326,1716.35 -270.742,1720.25 -272.392,1723.46C-274.042,1726.67 -277.557,1728.46 -281.123,1727.91L-286.087,1727.15C-304.646,1724.32 -323.271,1716.32 -333.861,1706.97C-349.716,1692.98 -364.246,1666.23 -369.463,1640.88C-373.823,1619.68 -375.453,1597.75 -374.817,1567.72C-375.332,1526.65 -363.141,1485.17 -353.402,1448.69L-353.399,1448.67C-351.928,1443.2 -349.665,1434.73 -348.37,1429.86C-342.457,1407.62 -330.09,1364.63 -322.308,1339.26C-316.228,1319.45 -305.744,1292.24 -295.237,1269.03C-294.415,1267.21 -290.469,1258.15 -286.468,1248.9C-282.419,1239.54 -277.921,1229.26 -276.474,1226.06C-275.035,1222.88 -270.265,1212.31 -265.874,1202.56C-253.913,1176.01 -254.324,1176.91 -240.332,1146.55C-233.157,1130.97 -224.229,1111.81 -220.493,1103.96C-217.22,1097.09 -213.962,1090.01 -213.962,1090.01C-213.872,1089.76 -213.767,1089.5 -213.645,1089.23C-212.726,1087.17 -207.837,1076.93 -201.988,1064.82C-195.55,1051.5 -185.706,1031.13 -180.114,1019.55C-174.513,1007.96 -155.638,969.939 -138.166,935.057C-120.885,900.555 -105.379,868.919 -103.74,864.741L-101.947,860.169L-104.108,854.771C-111.507,836.294 -127.278,817.737 -149.044,801.336C-153.719,797.813 -160.103,793.602 -163.252,792.015C-195.117,775.946 -255.944,775.199 -313.249,789.394C-325.991,792.55 -355.795,802.747 -370.723,809.046C-394.486,819.073 -426.876,836.818 -446.952,850.812C-450.958,853.605 -454.623,855.861 -455.598,856.299C-457.305,857.067 -458.598,857.101 -459.23,857.101C-461.95,857.101 -466.79,855.884 -467.976,849.36C-468.461,846.695 -468.024,839.211 -466.371,831.283C-459.102,796.393 -431.814,755.028 -385.097,709.644C-351.945,677.436 -317.586,650.658 -281.383,628.783C-269.872,621.828 -237.305,604.959 -229.181,601.728C-227.104,600.902 -223.46,599.389 -221.087,598.368C-189.409,584.74 -141.271,573.294 -116.371,573.328C-102.046,573.35 -75.933,573.18 -58.196,579.689C-28.823,590.47 -1.456,620.784 3.154,655.737C4.901,668.984 8.415,679.164 -1.812,736.026C-9.864,784.729 -24.993,819.253 -56.716,889.288C-63.166,903.529 -75.702,929.982 -85.627,950.503C-60.947,935.358 -29.425,919.286 -2.136,908.134C47.71,887.765 93.899,875.712 151.166,868.152C166.799,866.089 201.397,864.437 213.687,865.152C245.696,867.018 267.36,871.612 287.805,880.634C316.832,893.444 335.477,912.782 344.243,938.513C347.203,947.197 347.713,950.332 347.786,964.443C347.87,980.644 345.952,991.979 341.038,1004.96C339.86,1008.07 338.351,1012.1 337.685,1013.91L337.683,1013.92C335.128,1020.86 325.86,1037.55 318.421,1048.43C302.337,1071.98 291.888,1083.32 248.281,1123.98C222.54,1147.98 127.745,1235.78 87.234,1273.17C100.128,1270.1 112.099,1268.78 125.639,1268.72C153.054,1268.6 166.881,1273.98 183.142,1290.33C199.416,1306.7 205.154,1321.31 204.123,1343.15C202.584,1375.79 181.619,1413.07 133.19,1465.69C118.523,1481.63 88.299,1510.72 21.48,1573.15C-118.295,1703.75 -179.025,1773.05 -198.31,1825.97C-201.142,1833.75 -201.456,1835.82 -201.524,1845.32C-201.579,1852.87 -201.7,1854.86 -200.367,1857.72C-199.452,1858.26 -196.427,1860.05 -194.97,1860.92C-193.302,1861.91 -191.97,1862.95 -191.122,1863.84C-188.207,1866.91 -187.47,1869.68 -187.366,1871.85C-187.251,1874.25 -187.899,1876.45 -189.351,1878.51C-190.463,1880.09 -192.561,1881.7 -194.967,1883.5C-203.322,1889.77 -223.11,1894.16 -241.548,1889.23C-259.626,1884.38 -278.25,1875.61 -301.204,1860.96C-339.975,1836.23 -379.808,1801.68 -407.638,1768.68C-446.25,1722.9 -481.788,1660.43 -507.855,1592.34C-527.069,1542.15 -540.752,1491.78 -547.32,1447.19C-553.226,1407.09 -551.808,1334.45 -543.941,1277.97C-531.259,1186.95 -503.032,1111.62 -460.483,1054.48C-402.988,977.26 -347.077,945.806 -294.621,957.396C-278.589,960.938 -264.217,971.502 -254.943,984.005C-241.015,1002.78 -237.583,1029.86 -234.423,1063.98C-233.274,1076.38 -233.021,1097.23 -233.681,1106.75C-233.938,1110.46 -234.55,1113.02 -234.987,1114.04L-234.996,1114.06C-238.319,1121.75 -245.159,1120.1 -246.873,1119.31C-248.3,1118.65 -250.24,1117.42 -251.349,1114.45C-251.625,1113.71 -252.062,1111.84 -252.119,1108.59C-252.244,1101.34 -256.308,1074.58 -259.211,1061.64C-263.017,1044.67 -267.753,1030.88 -273.428,1020.51C-278.363,1011.49 -283.819,1005.2 -290.189,1002.26C-294.118,1000.45 -296.205,998.101 -307.65,998.155C-322.417,998.222 -327.333,1001.78 -338.192,1007.54C-358.091,1018.1 -384.91,1046.11 -422.574,1094.6C-465.108,1149.36 -488.912,1218.34 -497.066,1309.24C-498.892,1329.59 -498.562,1378.49 -496.445,1403.05C-488.284,1497.67 -463.228,1581.91 -420.283,1658.92C-381.422,1728.61 -322.259,1790.77 -260.748,1826.36C-256.357,1828.9 -245.302,1834.64 -236.548,1839.05ZM-116.383,581.719C-140.498,581.686 -187.092,592.877 -217.771,606.076C-220.208,607.124 -223.948,608.677 -226.08,609.525C-234.013,612.68 -265.803,629.173 -277.044,635.965C-312.723,657.523 -346.578,683.921 -379.25,715.662C-424.404,759.528 -451.131,799.272 -458.157,832.995C-459.858,841.156 -460.374,848.71 -459.23,848.71C-458.89,848.71 -455.525,846.56 -451.751,843.929C-431.269,829.652 -398.228,811.545 -373.985,801.315C-358.735,794.88 -328.284,784.474 -315.267,781.249C-255.743,766.505 -192.573,767.832 -159.474,784.523C-156.048,786.25 -149.082,790.801 -143.994,794.635C-120.824,812.094 -104.195,831.982 -96.319,851.652L-92.921,860.137L-95.929,867.806C-97.584,872.024 -113.215,903.978 -130.664,938.815C-148.113,973.652 -166.965,1011.62 -172.558,1023.2C-178.151,1034.78 -187.995,1055.15 -194.433,1068.47C-200.872,1081.8 -206.138,1092.84 -206.138,1093.02C-206.138,1093.19 -209.189,1099.74 -212.917,1107.57C-216.645,1115.4 -225.552,1134.52 -232.711,1150.06C-246.687,1180.39 -246.277,1179.49 -258.224,1206.01C-262.617,1215.76 -267.39,1226.34 -268.829,1229.52C-270.268,1232.7 -274.74,1242.92 -278.766,1252.23C-282.792,1261.54 -286.764,1270.65 -287.591,1272.48C-297.951,1295.37 -308.292,1322.19 -314.286,1341.72C-322.042,1367.01 -334.368,1409.85 -340.261,1432.02C-341.558,1436.89 -343.823,1445.37 -345.295,1450.85C-354.859,1486.68 -366.956,1527.4 -366.425,1567.73C-367.053,1597.09 -365.5,1618.5 -361.244,1639.19C-356.397,1662.74 -343.041,1687.68 -328.308,1700.68C-318.684,1709.18 -301.686,1716.28 -284.818,1718.86L-279.853,1719.62L-289.884,1709.32C-295.401,1703.65 -302.195,1695.78 -304.983,1691.82C-315.506,1676.87 -323.577,1657.14 -327.871,1635.87C-330.333,1623.67 -332.433,1595.63 -331.727,1584.35C-329.961,1556.12 -328.148,1540.82 -322.996,1510.68C-322.059,1505.19 -320.792,1497.71 -320.178,1494.06C-316.555,1472.46 -310.178,1449.04 -298.763,1415.4C-291.78,1394.82 -280.486,1363.3 -276.139,1352.25C-274.94,1349.2 -270.446,1337.49 -266.15,1326.21C-247.004,1275.97 -211.806,1191.09 -191.954,1147.29C-165.51,1088.94 -148.58,1062.28 -119.834,1033.7C-93.155,1007.18 -73.876,992.615 -47.661,979.183C-11.638,960.726 27.026,946.09 96.667,924.549C124.553,915.923 128.848,914.899 150.684,911.679C165.178,909.542 172.322,909.16 197.689,909.159C224.289,909.158 229.073,909.439 240.895,911.7C262.303,915.796 275.093,920.684 286.32,929.065C307.024,944.519 311.089,967.796 297.927,995.515C279.93,1033.41 236.06,1080.54 132.275,1173.43C54.85,1242.73 38.367,1257.87 17.755,1278.57C-29.014,1325.56 -60.889,1373.07 -72.559,1413.18C-75.6,1423.63 -77.646,1439.84 -75.831,1439.09C-75.262,1438.86 -69.191,1432.59 -62.338,1425.16C-7.901,1366.15 58.372,1323.22 108.502,1314.51C122.304,1312.11 138.037,1312.75 145.14,1316.01C154.494,1320.3 165.005,1334.78 165.005,1343.38C165.005,1352.21 157.59,1366.41 144.168,1383.27C121.067,1412.29 68.733,1464.27 -26.659,1552.95C-92.708,1614.35 -134.269,1658.9 -167.558,1704.01C-208.068,1758.89 -230.498,1810.97 -227.977,1844.3C-227.638,1848.79 -227.586,1852.46 -227.864,1852.46C-228.943,1852.46 -257.167,1838.12 -264.949,1833.62C-327.645,1797.35 -388.001,1734.04 -427.611,1663.01C-471.123,1584.98 -496.536,1499.64 -504.805,1403.77C-506.955,1378.83 -507.278,1329.16 -505.423,1308.49C-497.1,1215.7 -472.619,1145.35 -429.201,1089.45C-390.448,1039.56 -362.598,1010.99 -342.124,1000.13C-329.902,993.649 -324.308,989.84 -307.689,989.764C-293.925,989.7 -291.402,992.465 -286.677,994.643C-271.235,1001.76 -259.044,1024.04 -251.024,1059.8C-248.017,1073.21 -243.859,1100.93 -243.729,1108.44C-243.668,1111.97 -243.446,1112.46 -242.699,1110.73C-241.34,1107.56 -241.387,1079.77 -242.778,1064.75C-245.766,1032.49 -248.512,1006.76 -261.682,989.004C-269.816,978.038 -282.37,968.696 -296.431,965.589C-346.439,954.54 -398.942,985.876 -453.753,1059.49C-495.56,1115.63 -523.17,1189.7 -535.63,1279.13C-543.387,1334.81 -544.842,1406.43 -539.019,1445.97C-532.531,1490.01 -518.998,1539.76 -500.019,1589.34C-474.311,1656.49 -439.303,1718.12 -401.224,1763.27C-373.893,1795.68 -334.766,1829.6 -296.691,1853.89C-274.626,1867.97 -256.754,1876.46 -239.376,1881.12C-223.813,1885.29 -207.054,1882.08 -200.002,1876.79C-196.79,1874.38 -193.903,1873.1 -197.208,1869.62C-199.077,1867.65 -205.965,1865.18 -207.397,1862.43C-209.693,1858.04 -209.992,1856 -209.915,1845.26C-209.837,1834.38 -209.439,1832.01 -206.194,1823.1C-186.686,1769.57 -125.64,1699.13 15.751,1567.02C82.298,1504.84 112.409,1475.88 127.016,1460.01C173.503,1409.5 194.264,1374.08 195.742,1342.75C196.65,1323.51 191.529,1310.67 177.192,1296.25C162.645,1281.62 150.202,1277 125.676,1277.11C104.993,1277.2 88.146,1280.41 65.403,1288.56C60.283,1290.4 55.921,1291.73 55.71,1291.52C55.499,1291.3 60.978,1285.94 67.886,1279.59C93.596,1255.97 213.152,1145.26 242.559,1117.84C285.384,1077.91 295.697,1066.82 311.493,1043.7C318.543,1033.38 327.387,1017.6 329.808,1011.02C330.48,1009.19 332.002,1005.13 333.19,1001.99C337.738,989.976 339.473,979.48 339.395,964.486C339.33,951.83 338.955,949.008 336.301,941.219C328.265,917.633 311.025,900.053 284.417,888.311C264.777,879.644 243.948,875.321 213.199,873.529C201.221,872.832 167.501,874.46 152.264,876.471C95.773,883.928 50.208,895.808 1.038,915.901C-31.182,929.068 -69.401,949.193 -94.796,966.364C-105.994,973.936 -106.895,974.478 -106.236,973.243C-100.494,962.493 -74.646,908.538 -64.359,885.826C-33.049,816.702 -18.022,782.679 -10.081,734.598C-0.169,679.51 -3.473,669.661 -5.165,656.834C-9.365,624.988 -34.325,597.389 -61.087,587.566C-77.94,581.381 -102.772,581.74 -116.383,581.719ZM-108.116,603.84C-88.811,603.649 -73.769,608.231 -63.68,617.612C-52.391,628.109 -49.532,635.075 -45.201,657.526C-41.476,676.829 -44.022,688.617 -45.413,698.561C-49.31,726.42 -66.613,786.27 -77.21,808.55C-79.353,813.055 -81.735,816.581 -82.633,816.581C-83.514,816.581 -85.559,813.965 -87.179,810.766C-88.798,807.567 -92.525,801.386 -95.462,797.031C-119.71,761.076 -155.04,740.565 -210.016,730.528C-225.806,727.644 -275.654,727.613 -292.554,730.474C-323.184,735.661 -357.173,745.865 -377.144,755.869C-380.709,757.655 -383.951,758.788 -384.346,758.389C-384.741,757.989 -377.587,750.35 -368.447,741.412C-319.411,693.46 -259.328,652.527 -202.261,628.193C-164.806,612.221 -132.937,604.086 -108.116,603.84ZM-351.011,736.419C-333.375,730.578 -313.034,725.432 -293.955,722.201C-276.459,719.239 -224.855,719.288 -208.509,722.274C-150.834,732.803 -113.944,754.62 -88.505,792.339C-86.76,794.928 -84.755,798.124 -83.025,801.036C-72.61,776.829 -57.324,723.142 -53.723,697.399C-52.425,688.121 -49.965,677.124 -53.44,659.116C-57.259,639.315 -59.438,633.015 -69.394,623.757C-78.138,615.626 -91.301,612.065 -108.033,612.23C-129.654,612.445 -156.778,618.974 -188.426,631.564L-187.297,632.867C-185.596,634.832 -183.301,637.868 -181.314,640.332C-181.178,640.5 -181.045,640.67 -180.915,640.84C-165.754,638.064 -142.019,637.471 -129.159,639.431C-129.012,639.038 -128.873,638.626 -128.769,638.231C-128.071,635.579 -127.693,632.119 -127.798,627.843C-127.891,624.095 -125.486,620.741 -121.907,619.625C-118.328,618.51 -114.444,619.903 -112.39,623.039C-107.145,631.05 -104.762,636.898 -102.719,642.021C-101.247,645.709 -100.053,648.941 -97.458,652.532C-84.608,662.104 -76.874,674.231 -73.104,690.911C-70.334,703.167 -72.075,717.281 -77.909,729.156C-80.099,733.615 -81.86,736.243 -83.105,737.527C-86.002,740.515 -88.922,740.903 -91.183,740.674C-93.622,740.428 -96.37,739.305 -98.456,735.931C-98.712,735.517 -99.295,734.461 -99.712,732.725C-100.126,730.998 -100.833,726.893 -101.443,722.402C-103.261,709.027 -103.109,707.052 -107.087,703.162C-109.785,700.522 -113.974,698.614 -116.314,697.851C-118.269,698.387 -122.101,699.69 -126.29,702.489C-126.405,702.566 -126.521,702.639 -126.639,702.71C-136.316,708.506 -141.347,711.031 -143.36,711.623C-147.207,712.754 -149.63,711.595 -150.89,710.847C-152.747,709.744 -153.985,708.182 -154.658,706.195C-155.163,704.703 -155.558,702.337 -154.216,699.423C-153.379,697.605 -149.319,692.99 -145.796,688.132C-145.479,687.695 -145.141,687.167 -144.813,686.622C-151.771,684.869 -162.324,683.299 -170.91,683.553C-171.256,683.563 -171.632,683.581 -171.994,683.601C-173.922,690.111 -177.547,698.573 -187.936,714.33C-190.111,717.63 -194.295,718.965 -197.979,717.533C-201.664,716.102 -203.85,712.294 -203.227,708.391C-201.861,699.824 -200.013,693.345 -199.003,688.35C-198.783,687.262 -198.648,685.908 -198.573,684.951C-200.95,685.262 -204.2,685.644 -206.937,685.927C-221.518,687.436 -242.071,693.064 -258.024,699.867C-263.83,702.343 -269.024,703.883 -270.242,703.967C-273.946,704.222 -275.981,702.472 -276.952,701.501C-278.065,700.389 -278.836,699.047 -279.215,697.449C-279.489,696.291 -279.988,692.186 -275.976,688.249C-272.879,685.211 -263.25,677.951 -253.92,671.886C-237.682,661.331 -222.175,653.67 -202.141,646.365C-202.266,645.911 -202.41,645.468 -202.573,645.085L-205.301,638.674C-255.148,660.927 -306.899,695.691 -351.011,736.419ZM-119.41,627.636C-119.041,642.612 -123.955,649.382 -126.925,648.426C-138.119,645.387 -168.537,646.223 -183.578,649.983C-185.562,650.479 -185.043,649.074 -187.845,645.6C-189.772,643.21 -191.992,640.264 -193.641,638.359L-198.902,632.282L-194.851,641.802C-193.293,645.466 -192.891,649.637 -193.264,650.591C-193.805,651.97 -194.916,652.686 -196.97,653.419C-217.466,660.737 -233.027,668.313 -249.347,678.921C-260.3,686.041 -271.752,694.836 -271.021,695.566C-270.743,695.844 -266.376,694.307 -261.316,692.149C-244.607,685.024 -223.072,679.161 -207.8,677.581C-204.144,677.203 -199.533,676.644 -197.553,676.337C-195.47,676.32 -193.072,677.057 -191.62,679.056C-187.635,684.243 -192.255,692.869 -194.941,709.712C-185.04,694.694 -181.659,686.869 -179.906,680.761C-177.968,675.599 -177.183,675.344 -171.158,675.166C-157.23,674.754 -138.548,678.717 -135.132,681.24C-129.611,690.46 -166.767,716.965 -130.951,695.512C-123.136,690.291 -116.222,689.233 -116.222,689.233C-113.924,689.611 -105.94,692.546 -101.22,697.163C-96.175,702.097 -95.434,704.308 -93.129,721.272C-92.427,726.434 -91.612,731.045 -91.319,731.519C-90.098,733.494 -88.658,732.009 -85.44,725.457C-80.452,715.303 -78.92,703.24 -81.288,692.761C-84.667,677.812 -91.648,667.026 -103.414,658.571C-110.679,649.215 -109.745,642.396 -119.41,627.636Z"/>
        </g>
    </g>
</svg>
